<svg viewBox="0 0 64 64" xmlns="http://www.w3.org/2000/svg"><path d="M60 35a1 1 0 0 0 1-1v-3h1a1 1 0 0 0 1-1v-6a1 1 0 0 0-1-1h-1.87A31 31 0 0 0 36.94 5.41a5 5 0 0 0-9.88 0A31.06 31.06 0 0 0 3.86 23H2a1 1 0 0 0-1 1v6a1 1 0 0 0 1 1h1v3a1 1 0 0 0 1 1h1v16H4a1 1 0 0 0-1 1v3H2a1 1 0 0 0-1 1v6a1 1 0 0 0 1 1h60a1 1 0 0 0 1-1v-6a1 1 0 0 0-1-1h-1v-3a1 1 0 0 0-1-1h-1V35Zm-1-2h-6v-2h6Zm-7 18a1 1 0 0 0-1 1v3h-6v-3a1 1 0 0 0-1-1h-1V35h1a1 1 0 0 0 1-1v-3h6v3a1 1 0 0 0 1 1h1v16Zm-40 0h-1V35h1a1 1 0 0 0 1-1v-3h6v3a1 1 0 0 0 1 1h1v16h-1a1 1 0 0 0-1 1v3h-6v-3a1 1 0 0 0-1-1Zm11 0V35h2v16Zm-2-18v-2h6v2Zm0 20h6v2h-6Zm7-2h-1V35h1a1 1 0 0 0 1-1v-3h6v3a1 1 0 0 0 1 1h1v16h-1a1 1 0 0 0-1 1v3h-6v-3a1 1 0 0 0-1-1Zm11 0V35h2v16Zm-2-18v-2h6v2Zm0 20h6v2h-6Zm9-40a3 3 0 0 0-3 3v1a1 1 0 0 1-2 0 3 3 0 0 0-6 0v1a1 1 0 0 1-2 0v-4a3 3 0 0 0-6 0 1 1 0 0 1-2 0V7.88A28.57 28.57 0 0 1 32 7a29 29 0 0 1 20 8v2.5a1.5 1.5 0 0 1-3 0V16a3 3 0 0 0-3-3ZM32 3a3 3 0 0 1 2.86 2.15C33.92 5.06 33 5 32 5s-1.92.06-2.86.15A3 3 0 0 1 32 3Zm-9 5.45V14a3 3 0 0 0 6 0 1 1 0 0 1 2 0v4a3 3 0 0 0 6 0v-1a1 1 0 0 1 2 0 3 3 0 0 0 6 0v-1a1 1 0 0 1 2 0v1.5a3.5 3.5 0 0 0 7 0v-.39A28.85 28.85 0 0 1 57.91 23H6.09A29.06 29.06 0 0 1 23 8.45ZM3 25h58v4H3Zm8 6v2H5v-2Zm-4 4h2v16H7ZM5 53h6v2H5Zm56 8H3v-4h58Zm-8-6v-2h6v2Zm4-4h-2V35h2Z" data-name="Layer 18"/></svg>